<?xml version="1.0" encoding="UTF-8"?>
<svg width="130px" height="30px" viewBox="0 0 130 30" version="1.1" xmlns="http://www.w3.org/2000/svg" xmlns:xlink="http://www.w3.org/1999/xlink">
  <title>logo-pdffiller</title>
  <g id="New-illustrations-for-JSfiller-loader" stroke="none" stroke-width="1" fill="none" fill-rule="evenodd">
    <g id="logo-pdffiller" fill="#E8501F" fill-rule="nonzero">
      <path d="M10.452,5.47392857 C15.9649286,5.47392857 18.4952857,8.7425 18.4952857,14.8933571 C18.4952857,20.4796429 15.8739286,24.1939286 10.452,24.1939286 C8.52242857,24.1939286 6.82592857,23.6302857 5.50828571,22.6933571 L5.21114286,22.4705 L5.15078571,22.5299286 L5.20464286,27.8348571 C5.20633156,28.1453692 5.0241077,28.4274517 4.74035714,28.5535714 L4.615,28.5981429 L0.995428571,29.5434286 C0.782970839,29.6011029 0.556080117,29.5674249 0.369534814,29.4505255 C0.182989512,29.3336261 0.0537432291,29.1441294 0.013,28.9277857 L0,28.7875714 L0,6.59471429 C0,6.21121429 0.280428571,5.89178571 0.65,5.82585714 L0.793,5.81285714 L3.48121429,5.81285714 C3.78578571,5.81285714 4.05878571,5.98464286 4.19064286,6.24742857 L4.23892857,6.36535714 L4.6085,7.55392857 C6.02457143,6.2465 7.83157143,5.47392857 10.452,5.47392857 Z M37.4557857,0.139270798 C37.8362223,0.136962056 38.1641799,0.406355806 38.2357857,0.78 L38.2487857,0.921142857 L38.2487857,23.114 C38.2464027,23.4936934 37.9727909,23.817337 37.5987857,23.8828571 L37.4557857,23.8958571 L34.7675714,23.8958571 C34.4680537,23.8964169 34.1937138,23.7283657 34.0581429,23.4612857 L34.0098571,23.3433571 L33.6402857,22.1547857 C32.2242143,23.4622143 30.4172143,24.2347857 27.7958571,24.2347857 C22.2838571,24.2347857 19.7544286,20.9662143 19.7544286,14.8153571 C19.7544286,9.22907143 22.3739286,5.51478571 27.7958571,5.51478571 C29.7263571,5.51478571 31.4219286,6.07842857 32.7405,7.01535714 L33.0376429,7.23821429 L33.098,7.17878571 L33.0432143,1.87385714 C33.0411555,1.56300901 33.2234393,1.28046922 33.5075,1.15421429 L33.6337857,1.11057143 L37.2533571,0.166214286 C37.3194533,0.148975374 37.3874785,0.140238193 37.4557857,0.140214286 L37.4557857,0.139270798 Z M106.058643,5.707 C111.241929,5.707 114.578286,8.61714286 114.578286,14.0845714 L114.569,14.4615714 C114.556929,14.742 114.533714,15.0837143 114.498429,15.4876429 C114.459538,15.8939407 114.117294,16.2035713 113.709143,16.2017143 L102.246857,16.2017143 C102.515214,18.8175 104.301786,19.9642857 107.786714,19.9642857 L108.455286,19.9605714 C109.429357,19.9475714 109.812857,19.8807143 111.153714,19.5640714 C111.293929,19.5306429 111.464786,19.4730714 111.666286,19.3904286 C112.018709,19.2451312 112.424689,19.3691807 112.635714,19.6866429 L112.705357,19.8175714 L113.650643,22.1139286 C113.72938,22.3067521 113.727529,22.5230923 113.645505,22.7145407 C113.563481,22.905989 113.40813,23.0565635 113.214214,23.1325714 L113.142714,23.1576429 C110.665286,23.8856429 108.671643,24.232 107.161786,24.1976429 C100.104643,24.0323571 96.9447143,20.6987857 96.9447143,14.7615 C96.9447143,9.38135714 99.8938571,5.70792857 106.059571,5.70792857 L106.058643,5.707 Z M127.6015,5.79892857 C127.949714,5.79892857 128.279357,5.82121429 128.585786,5.85928571 L128.934,5.915 C129.363929,5.99671429 129.645286,6.40714286 129.562643,6.83057143 L129.536643,6.92714286 L128.465071,10.1390714 C128.331288,10.5294101 127.921067,10.7524701 127.520714,10.6525714 L127.271857,10.5968571 C126.888781,10.5312897 126.500713,10.4992873 126.112071,10.5012143 C123.312429,10.5012143 122.329071,12.3537143 122.329071,15.4115 L122.329071,23.1242143 C122.327599,23.333055 122.243223,23.5327566 122.094505,23.6793843 C121.945788,23.8260121 121.744912,23.9075543 121.536071,23.9060913 L117.998214,23.9060913 C117.563687,23.9086444 117.20921,23.5587387 117.206143,23.1242143 L117.206143,7.05157143 C117.206143,6.61978571 117.560857,6.26971429 117.999143,6.26971429 L120.617714,6.26971429 C121.001709,6.26783518 121.331335,6.54258861 121.398643,6.92064286 L121.793286,9.20957143 L121.882429,9.20957143 C123.133214,6.97542857 125.158429,5.79985714 127.6015,5.79985714 L127.6015,5.79892857 Z M73.2317857,6.78321429 L73.3673571,6.80642857 L77.0537857,7.77957143 C77.3462857,7.85664286 77.5598571,8.09528571 77.6090714,8.38128571 L77.6192857,8.50664286 L77.6192857,23.1548571 C77.6192857,23.5244286 77.35,23.8317857 76.9943571,23.8949286 L76.8569286,23.9070132 L73.1714286,23.9070132 C72.8052357,23.9091455 72.4895131,23.650011 72.4202143,23.2904286 L72.4081429,23.1548571 L72.4081429,7.53257143 C72.4122204,7.14259364 72.7106376,6.81890717 73.099,6.78321429 L73.2327143,6.78321429 L73.2317857,6.78321429 Z M69.8406429,-7.12803697e-05 C70.067808,-0.00306478759 70.2850726,0.0928301954 70.435896,0.262729313 C70.5867193,0.43262843 70.6561846,0.659728279 70.6262143,0.884928571 L70.5946429,1.02235714 L69.5212143,4.30207143 C69.4300812,4.57670435 69.1959761,4.77945293 68.9111429,4.83042857 L68.7672143,4.84342857 L60.6403571,4.84342857 L60.6403571,9.33028571 L68.1311429,9.33028571 C68.5143004,9.3298371 68.8429777,9.60340917 68.9120714,9.98028571 L68.9232143,10.1195714 L68.8925714,13.0724286 C68.8864697,13.4498966 68.6127311,13.7696482 68.2407143,13.8338571 L68.0995714,13.8468571 L60.6403571,13.8468571 L60.6403571,23.114 C60.6388698,23.4943955 60.3650486,23.8190692 59.9903571,23.8847143 L59.8473571,23.8967996 L56.2649286,23.8967996 C55.8842024,23.8990257 55.5561414,23.6291565 55.4849286,23.2551429 L55.4719286,23.1149286 L55.4719286,2.08464286 C55.4719286,1.001 56.3104286,0.1105 57.382,0.00928571429 L57.5853571,-7.12803697e-05 L69.8406429,-7.12803697e-05 L69.8406429,-7.12803697e-05 Z M50.2134286,0.107714286 C50.7408571,0.107714286 51.2877857,0.143928571 51.8133571,0.205214286 C52.0659286,0.234928571 52.3742143,0.283214286 52.7382143,0.351 L52.8338571,0.376071429 C53.1895,0.491214286 53.4002857,0.840357143 53.3510714,1.19321429 L53.3195,1.32507143 L52.7892857,2.91757143 C52.6770597,3.24911463 52.3534856,3.46163968 52.0046429,3.43292857 L51.9071429,3.4255 C51.6852143,3.4125 51.4614286,3.40692857 51.2376429,3.40692857 C49.1483571,3.40692857 48.3367857,4.07642857 48.2615714,5.13685714 L48.2550714,5.30771429 L48.2550714,5.87228571 L52.0408571,5.87228571 C52.4212937,5.86996206 52.7492513,6.13935581 52.8208571,6.513 L52.8338571,6.65414286 L52.8338571,8.71557143 C52.8319216,9.09561594 52.5582052,9.41977434 52.1838571,9.48535714 L52.0408571,9.49742857 L48.2550714,9.49742857 L48.2550714,23.1149286 C48.2526884,23.494622 47.9790766,23.8182656 47.6050714,23.8837857 L47.463,23.8967996 L43.8657143,23.8967996 C43.4849881,23.8990257 43.1569271,23.6291565 43.0857143,23.2551429 L43.0736429,23.1149286 L43.0736429,9.49742857 L41.1552143,9.49742857 C40.7747777,9.49975223 40.4468201,9.23035848 40.3752143,8.85671429 L40.3622143,8.71557143 L40.3622143,6.65414286 C40.3622143,6.27064286 40.6426429,5.95121429 41.0122143,5.88528571 L41.1552143,5.87228571 L43.043,5.87228571 L43.043,5.30771429 C43.043,2.54428571 45.1517857,0.107714286 50.2115714,0.107714286 L50.2134286,0.107714286 Z M89.9219286,2.45514286 C89.9915714,2.45514286 90.0612143,2.46442857 90.1280714,2.483 L93.7253571,3.43757143 C94.0696117,3.52690299 94.3105527,3.83684769 94.3122143,4.1925 L94.3122143,23.1112143 C94.3107419,23.320055 94.2263654,23.5197566 94.0776479,23.6663843 C93.9289304,23.8130121 93.7280549,23.8945543 93.5192143,23.8930913 L89.9219286,23.8930913 C89.713088,23.8945543 89.5122124,23.8130121 89.3634949,23.6663843 C89.2147774,23.5197566 89.130401,23.320055 89.1289286,23.1112143 L89.1289286,3.237 C89.1289286,2.80521429 89.4845714,2.45514286 89.9219286,2.45514286 L89.9219286,2.45514286 Z M81.5833571,2.45514286 C81.6520714,2.45514286 81.7226429,2.46442857 81.7885714,2.483 L85.3858571,3.43757143 C85.7301117,3.52690299 85.9710527,3.83684769 85.9727143,4.1925 L85.9727143,23.1112143 C85.9696474,23.5457387 85.6151705,23.8956444 85.1806429,23.8930913 L81.5833571,23.8930913 C81.3745165,23.8945543 81.173641,23.8130121 81.0249235,23.6663843 C80.876206,23.5197566 80.7918296,23.320055 80.7903571,23.1112143 L80.7903571,3.237 C80.7903571,2.80521429 81.1450714,2.45514286 81.5833571,2.45514286 Z M29.302,9.88371429 C26.26,9.88371429 25.1150714,11.3397143 25.1150714,15.0242857 C25.1150714,18.8277143 26.0492143,20.3134286 29.3029286,20.3134286 C31.2222857,20.3134286 32.3755714,19.5826429 32.9336429,18.8787857 L33.0376429,18.7395 L33.0376429,11.3694286 C32.3449286,10.5077143 31.0189286,9.88371429 29.302,9.88371429 L29.302,9.88371429 Z M8.94585714,9.39714286 C7.02557143,9.39714286 5.87321429,10.1279286 5.31514286,10.8317857 L5.21114286,10.9710714 L5.21114286,18.3411429 C5.90385714,19.2028571 7.22892857,19.8268571 8.94585714,19.8268571 C11.9887857,19.8268571 13.1337143,18.3708571 13.1337143,14.6862857 C13.1337143,10.8828571 12.1995714,9.39714286 8.94585714,9.39714286 Z M106.201643,9.73607143 C103.550571,9.73607143 102.478071,10.8243571 102.240357,13.1160714 L110.014357,13.1160714 C109.954929,10.8243571 108.524929,9.73607143 106.201643,9.73607143 Z M73.2280714,0.627714286 L73.3636429,0.650928571 L77.0472857,1.625 C77.3338775,1.69954827 77.5507779,1.93422148 77.6025714,2.22578571 L77.6127857,2.35114286 L77.6127857,4.39957143 C77.6104208,4.61100435 77.5202432,4.81193286 77.3638495,4.95423705 C77.2074558,5.09654123 76.998931,5.16740493 76.7882143,5.14985714 L76.6526429,5.12664286 L72.969,4.15257143 C72.6826448,4.07791905 72.4660726,3.84320853 72.4146429,3.55178571 L72.4035,3.42642857 L72.4035,1.378 C72.4075775,0.988022216 72.7059948,0.664335744 73.0943571,0.628642857 L73.2280714,0.628642857 L73.2280714,0.627714286 Z" id="Shape"></path>
    </g>
  </g>
</svg>
